<svg width="172" height="16" viewBox="0 0 172 16" fill="none" xmlns="http://www.w3.org/2000/svg">
<path d="M3 13C11.3029 13 11.3029 3 19.6058 3C27.9088 3 27.9088 13 36.2117 13C44.5146 13 44.5146 3 52.7981 3C61.1012 3 61.1012 13 69.3845 13C77.6876 13 77.6876 3 85.9708 3C94.2739 3 94.2739 13 102.576 13C110.879 13 110.879 3 119.183 3C127.485 3 127.485 13 135.788 13C144.091 13 144.091 3 152.394 3C160.697 3 160.697 13 169 13" stroke="#B68C6B" stroke-width="5" stroke-miterlimit="10" stroke-linecap="round"/>
</svg>
