<svg width="197" height="303" viewBox="0 0 197 303" fill="none" xmlns="http://www.w3.org/2000/svg">
<path opacity="0.3" fill-rule="evenodd" clip-rule="evenodd" d="M187.188 96.7998C189.909 104.078 192.091 111.62 193.685 119.376L74.9668 0.658503C82.7228 2.25235 90.2642 4.43408 97.5426 7.15507L187.188 96.7998ZM194.766 175.357C195.547 170.627 196.111 165.824 196.447 160.958L35.4888 0H19.4091L194.766 175.357ZM186.407 205.818L0 19.41V35.4899L181.513 217.003C183.288 213.353 184.921 209.623 186.407 205.818ZM166.854 241.164L0 74.3093V90.3888L159.704 250.093C162.195 247.208 164.58 244.23 166.854 241.164ZM139.974 269.183L0 129.208V145.288L130.773 276.061C133.928 273.882 136.997 271.587 139.974 269.183ZM105.899 290.008L0 184.107V200.187L94.3751 294.562C98.2915 293.197 102.135 291.676 105.899 290.008ZM62.8873 301.895L0 239.007V255.087L47.9091 302.996C52.9667 302.871 57.9633 302.5 62.8873 301.895ZM3.7692 297.675L0 293.906V296.595C1.24973 296.971 2.50621 297.331 3.7692 297.675Z" fill="#CBA271"/>
</svg>
