<svg width="103" height="14" viewBox="0 0 103 14" fill="none" xmlns="http://www.w3.org/2000/svg">
<path d="M101 12C96.0483 12 96.0483 2 91.0965 2C86.1448 2 86.1448 12 81.193 12C76.2413 12 76.2413 2 71.3011 2C66.3493 2 66.3493 12 61.4093 12C56.4574 12 56.4574 2 51.5174 2C46.5656 2 46.5656 12 41.6141 12C36.6622 12 36.6622 2 31.7104 2C26.7589 2 26.7589 12 21.807 12C16.8552 12 16.8552 2 11.9033 2C6.95186 2 6.95185 12 2 12" stroke="url(#paint0_linear_342_2006)" stroke-width="3" stroke-miterlimit="10" stroke-linecap="round"/>
<defs>
<linearGradient id="paint0_linear_342_2006" x1="6" y1="2.00001" x2="122" y2="2.00001" gradientUnits="userSpaceOnUse">
<stop stop-color="#AF6E4D"/>
<stop offset="0.3931" stop-color="#AF6E4D" stop-opacity="0.6069"/>
<stop offset="1" stop-color="#AF6E4D" stop-opacity="0"/>
</linearGradient>
</defs>
</svg>
